<svg width="180" height="36" viewBox="0 0 180 36" fill="none" xmlns="http://www.w3.org/2000/svg">
<g clip-path="url(#clip0)">
<path d="M68.2263 35.349H60.8487L58.3678 27.472C58.1066 26.6257 57.7802 25.7794 57.3884 25.0633C56.9967 24.3472 56.5397 23.6962 55.9521 23.1754C55.4298 22.6546 54.7769 22.264 53.9934 21.9385C53.21 21.6781 52.2959 21.4828 51.2513 21.4828H48.7051V35.2839H42.111V0.7161L55.8215 0.651001C57.3232 0.651001 58.6942 0.911399 59.9347 1.43219C61.1752 1.95299 62.2851 2.66908 63.2644 3.51538C64.1784 4.42677 64.8966 5.46836 65.4189 6.70525C65.9412 7.94214 66.2024 9.24413 66.2024 10.6763C66.2024 11.7179 66.0718 12.6944 65.7453 13.6058C65.4189 14.5823 64.9619 15.4286 64.3743 16.2749C63.7867 17.0561 63.1338 17.7722 62.3504 18.4232C61.5669 19.0742 60.7181 19.5298 59.7388 19.8553C60.8487 20.2459 61.6975 20.8318 62.4156 21.613C63.1338 22.3942 63.6561 23.3056 64.0479 24.3472C64.2437 24.868 64.4396 25.3237 64.6354 25.8445C64.8313 26.3653 64.9619 26.821 65.1578 27.4069C65.3536 27.9277 65.5495 28.5136 65.7453 29.1646C65.9412 29.8156 66.2024 30.4666 66.4635 31.2477C66.79 32.2242 67.0511 33.0054 67.3776 33.7215C67.6387 34.1772 67.9652 34.8282 68.2263 35.349ZM59.4777 11.0669C59.4777 10.2857 59.3471 9.50453 59.0206 8.85353C58.6942 8.20254 58.3025 7.61664 57.7802 7.09585C57.2579 6.57505 56.6703 6.24956 55.9521 5.92406C55.2339 5.66366 54.4505 5.53346 53.667 5.53346H48.7704V16.34H53.667C54.4505 16.34 55.2339 16.2098 55.9521 15.9494C56.6703 15.689 57.2579 15.3635 57.7802 14.9078C58.3025 14.4521 58.6942 13.8662 59.0206 13.2152C59.3471 12.6293 59.4777 11.9132 59.4777 11.0669Z" fill="#414141"/>
<path d="M79.1948 35.349H72.4701V0.716095H79.1948V35.349Z" fill="#414141"/>
<path d="M117.65 28.9693C116.67 30.2062 115.56 31.2477 114.45 32.094C113.275 33.0054 112.1 33.7215 110.794 34.3074C109.554 34.8933 108.248 35.2839 106.942 35.6094C105.637 35.8698 104.331 36 103.025 36C100.413 36 97.9978 35.5443 95.778 34.6329C93.4929 33.7215 91.5343 32.4195 89.8368 30.7921C88.1393 29.1646 86.8335 27.2767 85.8542 25.0633C84.8748 22.8499 84.3525 20.5063 84.3525 17.9675C84.3525 15.4937 84.8096 13.1501 85.7889 10.9367C86.7682 8.72333 88.074 6.83545 89.7715 5.20796C91.469 3.58048 93.4276 2.34359 95.7127 1.36709C97.9978 0.455702 100.413 -0.065094 102.96 -0.065094C105.963 -0.065094 108.64 0.520801 111.121 1.75769C113.602 2.99458 115.626 4.62207 117.388 6.64015L112.818 11.2622C111.513 9.50453 110.076 8.26764 108.444 7.48644C106.812 6.70525 104.984 6.31465 103.025 6.31465C101.393 6.31465 99.8259 6.64015 98.3895 7.22605C96.9532 7.81194 95.6474 8.65823 94.6028 9.69983C93.4929 10.7414 92.6442 11.9783 92.0566 13.4105C91.4037 14.8427 91.1425 16.34 91.1425 17.9024C91.1425 19.5298 91.469 21.0271 92.0566 22.4593C92.7095 23.8915 93.5582 25.1284 94.6028 26.17C95.7127 27.2116 96.9532 28.0579 98.3895 28.7089C99.8259 29.3599 101.393 29.6203 103.025 29.6203C104.592 29.6203 106.094 29.3599 107.465 28.774C108.836 28.1881 110.076 27.4069 111.186 26.4955V23.1754H104.07V17.4467H117.65V28.9693Z" fill="#FF5243"/>
<path d="M145.854 35.349H122.873V0.716095H145.854V6.24955H129.532V14.5172H145.658V19.9204H129.532V29.425H145.854V35.349Z" fill="#FF5243"/>
<path d="M180 35.349H173.406L157.737 11.0018V35.349H151.143V0.651001H158.651L173.406 23.3056V0.651001H180V35.349Z" fill="#FF5243"/>
<path d="M35.3863 10.9367C34.407 8.72333 33.1012 6.83544 31.4037 5.20796C29.7062 3.58047 27.7476 2.27848 25.5277 1.36709C23.3732 0.455696 20.9576 0 18.4766 0C15.9304 0 13.58 0.455696 11.3602 1.36709C9.14037 2.27848 7.18172 3.58047 5.48422 5.20796C3.78672 6.83544 2.48096 8.72333 1.50163 10.9367C0.457018 13.1501 0 15.4937 0 17.9675C0 20.5063 0.457019 22.8499 1.43634 24.9982C2.41567 27.2116 3.72144 29.0995 5.41893 30.7269C7.11643 32.3544 9.07508 33.6564 11.2949 34.5678C13.5147 35.4792 15.9304 36 18.4113 36C20.9576 36 23.3079 35.5443 25.5277 34.5678C27.7476 33.6564 29.7062 32.3544 31.4037 30.7269C33.1012 29.0995 34.407 27.2116 35.3863 24.9982C36.3656 22.7848 36.8226 20.4412 36.8226 17.9675C36.8879 15.4937 36.3656 13.1501 35.3863 10.9367Z" fill="#414141"/>
<path d="M18.4113 29.6203C24.8657 29.6203 30.098 24.4031 30.098 17.9675C30.098 11.5318 24.8657 6.31467 18.4113 6.31467C11.957 6.31467 6.72473 11.5318 6.72473 17.9675C6.72473 24.4031 11.957 29.6203 18.4113 29.6203Z" stroke="url(#paint0_linear)" stroke-miterlimit="10"/>
</g>
<defs>
<linearGradient id="paint0_linear" x1="7.08898" y1="21.9741" x2="29.7618" y2="13.963" gradientUnits="userSpaceOnUse">
<stop stop-opacity="0"/>
<stop offset="1" stop-color="white"/>
</linearGradient>
<clipPath id="clip0">
<rect width="180" height="36" fill="white"/>
</clipPath>
</defs>
</svg>
